<svg width="73" height="50" viewBox="0 0 73 50" fill="none" xmlns="http://www.w3.org/2000/svg">
<path d="M72.6159 12.6752C72.9121 13.1365 72.9057 13.444 72.8638 13.6489H72.8574C72.8477 13.697 72.8333 13.745 72.8188 13.7931C72.6095 14.3696 71.9173 15.0038 70.8822 15.5515C67.8559 17.1451 63.8718 18.7386 59.0071 20.2984V20.2552C58.9829 18.7177 57.4939 17.5614 54.041 16.4148C31.4723 8.90365 12.9279 15.5467 6.30862 19.464C8.37554 13.5416 11.1347 7.08914 12.8571 6.12022C22.0037 0.972951 34.4857 -1.06578 47.0998 0.532534C58.9636 2.03476 68.7413 6.68876 72.6143 12.6752M71.6211 17.901C69.9116 23.5095 67.6498 30.0405 66.3781 31.4434C62.1928 36.0654 22.1904 45.1652 0 34.5183C12.6881 32.9008 53.7335 27.1081 71.6211 17.901Z" fill="white"/>
<path d="M32.7137 15.4072L28.3303 27.6316C27.5142 27.7821 26.6948 27.9327 25.8642 28.08C21.6692 28.8375 17.6384 29.5054 13.9617 30.0771C10.1546 28.4756 5.08712 25.4279 4.9519 23.6166L4.968 23.5637C5.61834 22.4779 10.7019 19.0587 19.4767 16.9863C23.0149 16.1487 27.5061 15.4489 32.7153 15.4072M23.5478 41.8162L20.7098 50H8.8459L12.1217 40.7C15.9658 41.3726 19.8534 41.7089 23.5478 41.821" fill="white"/>
</svg>
